<mxfile host="app.diagrams.net" agent="Mozilla/5.0 (Windows NT 10.0; Win64; x64) AppleWebKit/537.36 (KHTML, like Gecko) Chrome/129.0.0.0 Safari/537.36 Edg/129.0.0.0" version="24.7.16">
  <diagram id="w3JCvAwlTOYWEmXaqbOC" name="Страница — 1">
    <mxGraphModel dx="1042" dy="1832" grid="1" gridSize="10" guides="1" tooltips="1" connect="1" arrows="1" fold="1" page="1" pageScale="1" pageWidth="827" pageHeight="1169" math="0" shadow="0">
      <root>
        <mxCell id="0" />
        <mxCell id="1" parent="0" />
        <mxCell id="8wNaf2nfPr32FArFu5Zn-1" value="Пользователь" style="rounded=1;whiteSpace=wrap;html=1;" parent="1" vertex="1">
          <mxGeometry x="20" y="-1140" width="90" height="40" as="geometry" />
        </mxCell>
        <mxCell id="8wNaf2nfPr32FArFu5Zn-2" value="" style="verticalLabelPosition=bottom;verticalAlign=top;html=1;shape=mxgraph.basic.rect;fillColor2=none;strokeWidth=1;size=20;indent=5;" parent="1" vertex="1">
          <mxGeometry x="60" y="-1100" width="10" height="370" as="geometry" />
        </mxCell>
        <mxCell id="8wNaf2nfPr32FArFu5Zn-3" value="" style="endArrow=classic;html=1;rounded=0;" parent="1" edge="1">
          <mxGeometry width="50" height="50" relative="1" as="geometry">
            <mxPoint x="70" y="-1040" as="sourcePoint" />
            <mxPoint x="210" y="-1040" as="targetPoint" />
          </mxGeometry>
        </mxCell>
        <mxCell id="8wNaf2nfPr32FArFu5Zn-4" value="Ввод данных" style="text;html=1;align=center;verticalAlign=middle;resizable=0;points=[];autosize=1;strokeColor=none;fillColor=none;" parent="1" vertex="1">
          <mxGeometry x="90" y="-1080" width="100" height="30" as="geometry" />
        </mxCell>
        <mxCell id="8wNaf2nfPr32FArFu5Zn-6" value="Форма регисрации" style="rounded=1;whiteSpace=wrap;html=1;" parent="1" vertex="1">
          <mxGeometry x="170" y="-1140" width="90" height="40" as="geometry" />
        </mxCell>
        <mxCell id="8wNaf2nfPr32FArFu5Zn-7" value="" style="endArrow=none;dashed=1;html=1;rounded=0;" parent="1" edge="1">
          <mxGeometry width="50" height="50" relative="1" as="geometry">
            <mxPoint x="214.58" y="-1070" as="sourcePoint" />
            <mxPoint x="214.58" y="-1100" as="targetPoint" />
          </mxGeometry>
        </mxCell>
        <mxCell id="8wNaf2nfPr32FArFu5Zn-8" value="" style="verticalLabelPosition=bottom;verticalAlign=top;html=1;shape=mxgraph.basic.rect;fillColor2=none;strokeWidth=1;size=20;indent=5;" parent="1" vertex="1">
          <mxGeometry x="210" y="-1070" width="10" height="340" as="geometry" />
        </mxCell>
        <mxCell id="8wNaf2nfPr32FArFu5Zn-9" value="" style="endArrow=classic;html=1;rounded=0;entryX=0;entryY=0.046;entryDx=0;entryDy=0;entryPerimeter=0;" parent="1" target="8wNaf2nfPr32FArFu5Zn-13" edge="1">
          <mxGeometry width="50" height="50" relative="1" as="geometry">
            <mxPoint x="220" y="-1009" as="sourcePoint" />
            <mxPoint x="359" y="-1010" as="targetPoint" />
          </mxGeometry>
        </mxCell>
        <mxCell id="8wNaf2nfPr32FArFu5Zn-10" value="передача даннхы" style="text;html=1;align=center;verticalAlign=middle;resizable=0;points=[];autosize=1;strokeColor=none;fillColor=none;" parent="1" vertex="1">
          <mxGeometry x="230" y="-1050" width="120" height="30" as="geometry" />
        </mxCell>
        <mxCell id="8wNaf2nfPr32FArFu5Zn-11" value="Обработка сохранение&amp;nbsp;" style="rounded=1;whiteSpace=wrap;html=1;" parent="1" vertex="1">
          <mxGeometry x="324" y="-1140" width="90" height="40" as="geometry" />
        </mxCell>
        <mxCell id="8wNaf2nfPr32FArFu5Zn-12" value="" style="endArrow=none;dashed=1;html=1;rounded=0;" parent="1" edge="1">
          <mxGeometry width="50" height="50" relative="1" as="geometry">
            <mxPoint x="369" y="-1020" as="sourcePoint" />
            <mxPoint x="368.58000000000004" y="-1100" as="targetPoint" />
          </mxGeometry>
        </mxCell>
        <mxCell id="8wNaf2nfPr32FArFu5Zn-13" value="" style="verticalLabelPosition=bottom;verticalAlign=top;html=1;shape=mxgraph.basic.rect;fillColor2=none;strokeWidth=1;size=20;indent=5;" parent="1" vertex="1">
          <mxGeometry x="364" y="-1020" width="10" height="280" as="geometry" />
        </mxCell>
        <mxCell id="8wNaf2nfPr32FArFu5Zn-16" value="" style="endArrow=none;html=1;rounded=0;" parent="1" edge="1">
          <mxGeometry width="50" height="50" relative="1" as="geometry">
            <mxPoint x="410" y="-960" as="sourcePoint" />
            <mxPoint x="410" y="-980" as="targetPoint" />
          </mxGeometry>
        </mxCell>
        <mxCell id="8wNaf2nfPr32FArFu5Zn-17" value="" style="endArrow=none;html=1;rounded=0;entryX=1.2;entryY=0.139;entryDx=0;entryDy=0;entryPerimeter=0;" parent="1" target="8wNaf2nfPr32FArFu5Zn-13" edge="1">
          <mxGeometry width="50" height="50" relative="1" as="geometry">
            <mxPoint x="410" y="-981" as="sourcePoint" />
            <mxPoint x="390" y="-990" as="targetPoint" />
          </mxGeometry>
        </mxCell>
        <mxCell id="8wNaf2nfPr32FArFu5Zn-18" value="" style="endArrow=classic;html=1;rounded=0;" parent="1" edge="1">
          <mxGeometry width="50" height="50" relative="1" as="geometry">
            <mxPoint x="410" y="-960" as="sourcePoint" />
            <mxPoint x="380" y="-960" as="targetPoint" />
          </mxGeometry>
        </mxCell>
        <mxCell id="8wNaf2nfPr32FArFu5Zn-19" value="Валидация" style="text;html=1;align=center;verticalAlign=middle;resizable=0;points=[];autosize=1;strokeColor=none;fillColor=none;" parent="1" vertex="1">
          <mxGeometry x="374" y="-1010" width="90" height="30" as="geometry" />
        </mxCell>
        <mxCell id="8wNaf2nfPr32FArFu5Zn-20" value="БД" style="rounded=1;whiteSpace=wrap;html=1;" parent="1" vertex="1">
          <mxGeometry x="470" y="-1140" width="90" height="40" as="geometry" />
        </mxCell>
        <mxCell id="8wNaf2nfPr32FArFu5Zn-21" value="" style="endArrow=none;dashed=1;html=1;rounded=0;" parent="1" edge="1">
          <mxGeometry width="50" height="50" relative="1" as="geometry">
            <mxPoint x="515" y="-930" as="sourcePoint" />
            <mxPoint x="514.58" y="-1100" as="targetPoint" />
          </mxGeometry>
        </mxCell>
        <mxCell id="8wNaf2nfPr32FArFu5Zn-22" value="" style="endArrow=classic;html=1;rounded=0;entryX=0;entryY=0.046;entryDx=0;entryDy=0;entryPerimeter=0;" parent="1" edge="1">
          <mxGeometry width="50" height="50" relative="1" as="geometry">
            <mxPoint x="374" y="-930" as="sourcePoint" />
            <mxPoint x="518" y="-928" as="targetPoint" />
          </mxGeometry>
        </mxCell>
        <mxCell id="8wNaf2nfPr32FArFu5Zn-23" value="" style="verticalLabelPosition=bottom;verticalAlign=top;html=1;shape=mxgraph.basic.rect;fillColor2=none;strokeWidth=1;size=20;indent=5;" parent="1" vertex="1">
          <mxGeometry x="510" y="-925" width="10" height="50" as="geometry" />
        </mxCell>
        <mxCell id="8wNaf2nfPr32FArFu5Zn-24" value="Запрос на добавления в кружок" style="text;html=1;align=center;verticalAlign=middle;resizable=0;points=[];autosize=1;strokeColor=none;fillColor=none;" parent="1" vertex="1">
          <mxGeometry x="364" y="-960" width="200" height="30" as="geometry" />
        </mxCell>
        <mxCell id="8wNaf2nfPr32FArFu5Zn-25" value="" style="endArrow=classic;html=1;rounded=0;entryX=1.019;entryY=0.489;entryDx=0;entryDy=0;entryPerimeter=0;exitX=-0.161;exitY=0.87;exitDx=0;exitDy=0;exitPerimeter=0;" parent="1" source="8wNaf2nfPr32FArFu5Zn-23" target="8wNaf2nfPr32FArFu5Zn-13" edge="1">
          <mxGeometry width="50" height="50" relative="1" as="geometry">
            <mxPoint x="366" y="-830" as="sourcePoint" />
            <mxPoint x="510" y="-828" as="targetPoint" />
          </mxGeometry>
        </mxCell>
        <mxCell id="8wNaf2nfPr32FArFu5Zn-26" value="Результат" style="text;html=1;align=center;verticalAlign=middle;resizable=0;points=[];autosize=1;strokeColor=none;fillColor=none;" parent="1" vertex="1">
          <mxGeometry x="400" y="-915" width="80" height="30" as="geometry" />
        </mxCell>
        <mxCell id="8wNaf2nfPr32FArFu5Zn-27" value="Активность регистрации" style="rounded=1;whiteSpace=wrap;html=1;" parent="1" vertex="1">
          <mxGeometry x="630" y="-1140" width="90" height="40" as="geometry" />
        </mxCell>
        <mxCell id="8wNaf2nfPr32FArFu5Zn-28" value="" style="endArrow=none;dashed=1;html=1;rounded=0;" parent="1" edge="1">
          <mxGeometry width="50" height="50" relative="1" as="geometry">
            <mxPoint x="680" y="-770" as="sourcePoint" />
            <mxPoint x="680" y="-1100" as="targetPoint" />
          </mxGeometry>
        </mxCell>
        <mxCell id="8wNaf2nfPr32FArFu5Zn-29" value="" style="verticalLabelPosition=bottom;verticalAlign=top;html=1;shape=mxgraph.basic.rect;fillColor2=none;strokeWidth=1;size=20;indent=5;" parent="1" vertex="1">
          <mxGeometry x="680" y="-770" width="10" height="50" as="geometry" />
        </mxCell>
        <mxCell id="8wNaf2nfPr32FArFu5Zn-30" value="" style="endArrow=none;dashed=1;html=1;rounded=0;entryX=0.336;entryY=1.042;entryDx=0;entryDy=0;entryPerimeter=0;" parent="1" target="8wNaf2nfPr32FArFu5Zn-23" edge="1">
          <mxGeometry width="50" height="50" relative="1" as="geometry">
            <mxPoint x="515" y="-740" as="sourcePoint" />
            <mxPoint x="514.5500000000001" y="-850" as="targetPoint" />
          </mxGeometry>
        </mxCell>
        <mxCell id="8wNaf2nfPr32FArFu5Zn-31" value="" style="endArrow=classic;html=1;rounded=0;entryX=-0.155;entryY=0.065;entryDx=0;entryDy=0;entryPerimeter=0;exitX=1.045;exitY=0.897;exitDx=0;exitDy=0;exitPerimeter=0;" parent="1" source="8wNaf2nfPr32FArFu5Zn-13" target="8wNaf2nfPr32FArFu5Zn-29" edge="1">
          <mxGeometry width="50" height="50" relative="1" as="geometry">
            <mxPoint x="374" y="-750" as="sourcePoint" />
            <mxPoint x="424" y="-800" as="targetPoint" />
          </mxGeometry>
        </mxCell>
        <mxCell id="8wNaf2nfPr32FArFu5Zn-32" value="Сообщение пользователю" style="text;html=1;align=center;verticalAlign=middle;resizable=0;points=[];autosize=1;strokeColor=none;fillColor=none;" parent="1" vertex="1">
          <mxGeometry x="410" y="-800" width="170" height="30" as="geometry" />
        </mxCell>
      </root>
    </mxGraphModel>
  </diagram>
</mxfile>
